<?xml version="1.0" encoding="UTF-8" standalone="no"?>
<!-- Created with Inkscape (http://www.inkscape.org/) -->

<svg
   width="1056"
   height="256"
   viewBox="0 0 1056 256.00001"
   version="1.1"
   id="svg22"
   inkscape:version="1.2 (dc2aedaf03, 2022-05-15)"
   sodipodi:docname="hoqn-logo-color-centered.svg"
   xmlns:inkscape="http://www.inkscape.org/namespaces/inkscape"
   xmlns:sodipodi="http://sodipodi.sourceforge.net/DTD/sodipodi-0.dtd"
   xmlns="http://www.w3.org/2000/svg"
   xmlns:svg="http://www.w3.org/2000/svg"
   xmlns:rdf="http://www.w3.org/1999/02/22-rdf-syntax-ns#"
   xmlns:cc="http://creativecommons.org/ns#"
   xmlns:dc="http://purl.org/dc/elements/1.1/">
  <defs
     id="defs16" />
  <sodipodi:namedview
     id="base"
     pagecolor="#ffffff"
     bordercolor="#000000"
     borderopacity="0.30"
     inkscape:pageopacity="0.0"
     inkscape:pageshadow="2"
     inkscape:zoom="0.7"
     inkscape:cx="252.14286"
     inkscape:cy="72.857143"
     inkscape:document-units="px"
     inkscape:current-layer="g1241"
     inkscape:showpageshadow="2"
     inkscape:pagecheckerboard="false"
     inkscape:deskcolor="#d1d1d1"
     showgrid="false"
     inkscape:window-width="1920"
     inkscape:window-height="1017"
     inkscape:window-x="-8"
     inkscape:window-y="-8"
     inkscape:window-maximized="1" />
  <metadata
     id="metadata19">
    <rdf:RDF>
      <cc:Work
         rdf:about="">
        <dc:format>image/svg+xml</dc:format>
        <dc:type
           rdf:resource="http://purl.org/dc/dcmitype/StillImage" />
      </cc:Work>
    </rdf:RDF>
  </metadata>
  <g
     inkscape:label="Layer 1"
     inkscape:groupmode="layer"
     id="layer1">
    <g
       id="g1976"
       transform="translate(-10.509641)">
      <g
         id="g1987"
         transform="translate(34.285726)">
        <g
           id="g8728"
           transform="translate(1.429339e-5)">
          <g
             aria-label="HOQN"
             id="text78"
             style="font-size:204.081px;line-height:1.25;stroke-width:5.10203"
             transform="matrix(0.89550054,0,0,0.89550054,-50.00796,14.150918)">
            <path
               d="M 466.99257,200.54442 H 432.2151 v -60.58655 h -51.51849 v 60.58655 H 345.71983 V 55.455587 h 34.97678 V 113.05266 H 432.2151 V 55.455587 h 34.77747 z"
               style="font-weight:900;font-family:Roboto;-inkscape-font-specification:'Roboto Heavy'"
               id="path4181" />
            <path
               d="m 611.98176,130.98947 q 0,21.22522 -7.87226,37.56764 -7.87227,16.34243 -22.42101,25.21118 -14.44909,8.76911 -32.98379,8.76911 -18.5347,0 -32.88415,-8.47016 -14.34944,-8.56981 -22.42101,-24.41399 -7.97191,-15.84418 -8.37051,-36.37185 v -8.17122 q 0,-21.32487 7.77262,-37.56764 7.87227,-16.342423 22.42101,-25.211177 14.64839,-8.868755 33.28274,-8.868755 18.43505,0 32.88414,8.769106 14.4491,8.769105 22.42101,25.011879 8.07156,16.143127 8.17121,37.069397 z m -35.57466,-6.07858 q 0,-21.62382 -7.27437,-32.7845 -7.17473,-11.260328 -20.62733,-11.260328 -26.30732,0 -27.80205,39.460978 l -0.0996,10.66243 q 0,21.32487 7.07507,32.7845 7.07508,11.45962 21.02593,11.45962 13.2533,0 20.42803,-11.26033 7.17472,-11.26032 7.27437,-32.3859 z"
               style="font-weight:900;font-family:Roboto;-inkscape-font-specification:'Roboto Heavy'"
               id="path4183" />
            <path
               d="m 753.08466,130.98947 q 0,20.12908 -6.67648,35.17607 -6.67648,14.94734 -18.43505,24.01539 l 23.41749,18.5347 -21.62381,18.3354 -31.19012,-25.11153 q -4.38455,0.5979 -8.7691,0.5979 -18.5347,0 -32.88415,-8.56981 -14.34944,-8.56981 -22.421,-24.51364 -7.97192,-15.94382 -8.27086,-36.6708 v -7.67297 q 0,-21.42451 7.77261,-37.667289 7.87227,-16.242774 22.32136,-25.111528 14.54874,-8.868755 33.28274,-8.868755 18.43505,0 32.88415,8.769106 14.44909,8.769105 22.421,25.011879 8.07157,16.143127 8.17122,37.069397 z m -35.57467,-6.07858 q 0,-21.62382 -7.27437,-32.7845 -7.17472,-11.260328 -20.62733,-11.260328 -13.8512,0 -20.82662,11.061031 -6.97543,11.061027 -7.07508,32.385897 v 6.67648 q 0,21.42452 7.07508,32.88414 7.07507,11.35998 21.02592,11.35998 13.35295,0 20.42803,-11.26033 7.17472,-11.26032 7.27437,-32.3859 z"
               style="font-weight:900;font-family:Roboto;-inkscape-font-specification:'Roboto Heavy'"
               id="path4185" />
            <path
               d="m 892.09489,200.54442 h -34.77747 l -51.41885,-90.28193 v 90.28193 H 770.9218 V 55.455587 h 34.97677 l 51.3192,90.281923 V 55.455587 h 34.87712 z"
               style="font-weight:900;font-family:Roboto;-inkscape-font-specification:'Roboto Heavy'"
               id="path4187" />
          </g>
          <g
             id="g1241"
             transform="matrix(0.51923981,0,0,0.51923981,55.5675,-7.4141991)"
             style="stroke-width:27.5942;stroke-dasharray:none">
            <g
               id="g8654"
               transform="translate(-101.04453)">
              <path
                 style="color:#000000;fill:#123477"
                 d="m 45.611328,117.03906 v 17.2461 273.24609 H 336.10352 V 117.03906 Z m 34.492188,34.49219 H 301.61133 V 373.03906 H 80.103516 Z"
                 id="rect340" />
              <path
                 style="color:#000000;fill:#123477"
                 d="m 75.052734,122.08984 -24.390625,24.39063 256.000001,256 24.39062,-24.39063 z"
                 id="path1135" />
              <path
                 style="color:#000000;fill:#123477"
                 d="m 203.05273,122.08984 -24.39062,24.39063 128,128 24.39062,-24.39063 z"
                 id="path1137" />
              <path
                 style="color:#000000;fill:#123477;-inkscape-stroke:none"
                 d="m 62.857422,245.03906 v 34.49219 c 0,0 28.400635,0.23645 56.287108,14.17969 27.88648,13.94323 54.4668,38.32307 54.4668,96.57422 h 34.49219 c 0,-69.74872 -37.41974,-109.36905 -73.53321,-127.42579 C 98.456847,244.80264 62.857422,245.03906 62.857422,245.03906 Z"
                 id="path1139" />
            </g>
          </g>
        </g>
      </g>
    </g>
  </g>
</svg>
